<svg xmlns="http://www.w3.org/2000/svg" width="16" height="17" viewBox="0 0 16 17">
    <g fill="#B620E0">
        <path d="M15.486 7.826h-5.429c-.21-.995-1.086-1.737-2.114-1.737-1.029 0-1.905.742-2.114 1.737H.533c-.266 0-.476.215-.476.488s.21.488.476.488H5.83c.21.995 1.085 1.736 2.114 1.736 1.028 0 1.905-.741 2.114-1.736h5.429c.266 0 .476-.215.476-.488 0-.254-.229-.488-.476-.488zM7.943 9.563c-.667 0-1.22-.566-1.22-1.25 0-.682.553-1.248 1.22-1.248.667 0 1.219.566 1.219 1.249 0 .683-.552 1.249-1.22 1.249zM2.248 4.9c1.028 0 1.904-.742 2.114-1.737h11.105c.266 0 .476-.215.476-.488s-.21-.488-.476-.488H4.362C4.152 1.192 3.276.45 2.248.45 1.048.45.076 1.465.076 2.675c0 1.21.972 2.224 2.172 2.224zm0-3.474c.666 0 1.219.566 1.219 1.249 0 .683-.553 1.249-1.22 1.249-.666 0-1.218-.566-1.218-1.25 0-.682.552-1.248 1.219-1.248zM13.771 11.767c-1.028 0-1.885.742-2.114 1.718H.533c-.266 0-.476.214-.476.487 0 .274.21.488.476.488h11.124c.21.995 1.086 1.756 2.114 1.756 1.2 0 2.172-.995 2.172-2.224 0-1.23-.99-2.225-2.172-2.225zm0 3.454c-.666 0-1.219-.566-1.219-1.249 0-.683.553-1.248 1.22-1.248.666 0 1.218.565 1.218 1.248s-.552 1.25-1.219 1.25z"/>
    </g>
</svg>
