<svg xmlns="http://www.w3.org/2000/svg" width="14" height="14" viewBox="0 0 14 14">
    <g fill="#888" fill-rule="evenodd">
        <path d="M3.712 0c-.163.018-.284.157-.28.32v.919H1.76c-.964 0-1.76.794-1.76 1.76v9.089c0 .966.795 1.76 1.76 1.76h10.328c.965 0 1.755-.794 1.755-1.76V4.931v-.02V3c0-.966-.79-1.76-1.755-1.76h-1.725v-.92c0-.084-.032-.166-.093-.227-.06-.06-.142-.093-.227-.092-.083.002-.163.036-.221.096-.058.06-.09.14-.089.224v.919H4.061v-.92c0-.084-.032-.166-.093-.227C3.908.032 3.826 0 3.741 0h-.03zM1.76 1.868h1.671v.92c0 .112.06.216.157.273.098.056.218.056.315 0 .098-.057.158-.161.158-.274v-.919h5.672v.92c0 .112.06.216.157.273.098.056.218.056.315 0 .098-.057.158-.161.158-.274v-.919h1.725c.62 0 1.126.507 1.126 1.13v1.598H.629V3c0-.624.51-1.13 1.131-1.13zM.63 5.226h12.584v6.862c0 .624-.506 1.13-1.126 1.13H1.76c-.62 0-1.13-.506-1.13-1.13V5.226z"/>
        <circle cx="4.278" cy="8.944" r="1.167"/>
        <circle cx="9.722" cy="8.944" r="1.167"/>
    </g>
</svg>
