<svg xmlns="http://www.w3.org/2000/svg" width="19" height="18" viewBox="0 0 19 18">
    <path fill="#FFF" stroke="#FFF" stroke-width=".2" d="M18.67 4.558c0-.55-.447-.996-.995-.996h-5.186V2.224c0-.758-.617-1.374-1.374-1.374h-3.43c-.757 0-1.374.616-1.374 1.374v1.338H1.126c-.55 0-.996.447-.996.995L.12 9.29c0 .153.088.293.226.36.21.103.428.197.647.291v6.442c0 .548.446.995.995.995h14.824c.549 0 .995-.446.995-.995V9.846c.224-.104.444-.21.659-.324.132-.07.214-.206.213-.354l-.01-4.61zM7.11 2.224c0-.317.258-.574.574-.574h3.43c.311 0 .574.263.574.574v1.338H7.111V2.224zm9.896 14.16c0 .104-.091.195-.195.195H1.988c-.106 0-.195-.09-.195-.195V10.26c1.741.64 3.686 1.023 5.808 1.14v.555c0 .403.327.73.73.73h2.139c.402 0 .729-.328.729-.73v-.56c2.149-.131 4.095-.537 5.808-1.209v6.198h0zm-8.606-4.499v-1.327h1.998v1.327H8.401zm2.798-1.295v-.102c0-.403-.327-.73-.73-.73H8.332c-.403 0-.73.328-.73.73v.11c-2.506-.143-4.752-.665-6.68-1.56l.01-4.48c0-.106.089-.196.195-.196h16.549c.106 0 .195.09.195.196l.01 4.366c-1.883.948-4.13 1.505-6.68 1.666z"/>
</svg>
