<svg xmlns="http://www.w3.org/2000/svg" width="13" height="15" viewBox="0 0 13 15">
    <path fill="none" fill-rule="evenodd" stroke="#FFF" d="M2.72 7.58c.436 0 .79.353.79.79v4.817c0 .437-.354.79-.79.79h-.93c-.436 0-.79-.353-.79-.79V8.37c0-.437.354-.79.79-.79h.93zm8.784-6.151c.436 0 .79.353.79.79v10.77c0 .436-.354.79-.79.79h-.93c-.436 0-.79-.354-.79-.79V2.219c0-.437.354-.79.79-.79h.93zM7.11 3.909c.437 0 .791.354.791.79v8.29c0 .436-.354.79-.79.79h-.93c-.436 0-.79-.354-.79-.79v-8.29c0-.436.354-.79.79-.79h.93z"/>
</svg>
