<svg xmlns="http://www.w3.org/2000/svg" width="17" height="17" viewBox="0 0 17 17">
    <path fill="#FFF" d="M13.985 10.734c-.893-.892-1.955-1.553-3.113-1.952 1.24-.855 2.056-2.286 2.056-3.903 0-2.612-2.125-4.736-4.736-4.736-2.611 0-4.736 2.124-4.736 4.736 0 1.617.815 3.048 2.056 3.903-1.158.4-2.22 1.06-3.113 1.952C.852 12.282 0 14.34 0 16.527h1.28c0-3.811 3.1-6.912 6.912-6.912 3.811 0 6.912 3.1 6.912 6.912h1.28c0-2.188-.852-4.245-2.4-5.793zm-5.793-2.4c-1.906 0-3.456-1.55-3.456-3.455 0-1.906 1.55-3.456 3.456-3.456s3.456 1.55 3.456 3.456-1.55 3.456-3.456 3.456z"/>
</svg>
