<svg xmlns="http://www.w3.org/2000/svg" width="18" height="19" viewBox="0 0 18 19">
    <g fill="#FFF">
        <path d="M.741 10.604c-.073-.38-.12-.763-.14-1.149C.59 9.29.45 9.162.283 9.171c-.165.01-.292.15-.284.317.022.412.072.823.15 1.23.028.14.15.242.294.243.02 0 .039-.002.058-.006.078-.015.148-.06.192-.126.045-.066.062-.147.047-.225zM2.081 13.782c-.094-.136-.281-.17-.418-.076-.136.094-.17.282-.076.418.236.34.495.663.775.968.112.122.302.13.424.018.122-.113.13-.302.018-.424-.261-.285-.503-.587-.723-.904zM.294 8.57c.008.002.016.002.025 0 .156.002.287-.118.3-.274.031-.385.09-.768.174-1.145C.83 6.99.728 6.83.566 6.792c-.162-.036-.323.066-.36.228-.09.404-.153.814-.188 1.227-.006.08.02.159.07.22.052.06.126.098.206.104zM4.586 16.156c-.33-.203-.644-.428-.942-.674-.127-.106-.317-.088-.422.04-.106.128-.088.317.04.422.32.264.656.505 1.008.723.092.06.209.067.306.016.098-.05.16-.15.161-.26.002-.11-.056-.212-.151-.267zM.736 6.218c.034.013.07.02.106.02.125 0 .237-.078.28-.195.102-.27.217-.535.347-.793.072-.148.012-.327-.136-.4-.147-.074-.326-.015-.401.132-.138.277-.262.56-.371.85-.058.155.02.328.175.386zM1.038 11.722c-.053-.157-.224-.24-.381-.187-.157.054-.24.224-.187.381.135.392.296.774.483 1.143.077.144.254.2.4.126.146-.073.206-.25.135-.397-.174-.344-.325-.7-.45-1.066zM6.7 17.085c-.371-.105-.735-.235-1.089-.39-.15-.06-.322.01-.386.158-.065.149 0 .322.146.392.38.166.77.306 1.168.42.027.007.054.01.082.011.15 0 .277-.11.297-.259.021-.149-.071-.29-.216-.33l-.001-.002zM1.71 11.522c.063.154.238.227.391.164.153-.063.227-.239.164-.392-.147-.354-.263-.72-.347-1.094-.036-.162-.196-.264-.358-.228-.162.036-.264.196-.228.358.092.407.218.806.377 1.192zM1.764 7c.029.009.06.013.09.013.13 0 .247-.085.286-.21.115-.366.258-.723.43-1.067.074-.148.015-.328-.133-.403-.148-.074-.329-.015-.403.133-.186.373-.342.76-.466 1.157-.024.076-.017.158.02.229.036.07.1.124.176.148zM1.788 9.062v-.058c.005-.361.035-.721.09-1.078.019-.107-.022-.215-.107-.283-.084-.069-.199-.086-.3-.046-.1.04-.172.132-.186.24-.06.383-.092.77-.097 1.159v.08c0 .079.032.154.089.21.056.054.132.084.211.083.167-.004.3-.14.3-.307zM5.113 14.875c-.313-.225-.61-.473-.889-.74-.12-.11-.306-.104-.419.014-.113.118-.11.304.004.42.3.286.618.552.954.794.134.097.322.066.419-.069.097-.134.066-.322-.069-.419zM7.158 15.914c-.365-.115-.72-.261-1.062-.436-.147-.075-.328-.017-.403.13-.076.148-.017.33.13.404.372.19.758.35 1.155.475.159.05.327-.038.377-.196.05-.158-.039-.327-.197-.377zM3.395 13.7c.13-.103.151-.292.048-.421-.241-.302-.462-.62-.66-.953-.052-.097-.154-.158-.264-.158-.11 0-.212.06-.265.157-.052.098-.047.216.014.308.212.356.448.697.706 1.02.103.13.292.151.422.048z" transform="translate(0 .857)"/>
        <path d="M8.988 0C7.266-.003 5.58.49 4.131 1.42L2.909.098c-.08-.086-.2-.118-.311-.083-.111.035-.192.131-.207.246l-.6 4.5c-.013.093.02.187.086.253.067.066.16.097.253.084l4.2-.6c.11-.016.203-.092.24-.197.037-.105.013-.222-.062-.303l-1.13-1.224c2.62-1.52 5.912-1.239 8.235.705 2.323 1.944 3.181 5.135 2.146 7.982-1.035 2.847-3.741 4.742-6.77 4.74h-.005c-.236 0-.473-.015-.708-.043-.165-.02-.314.097-.334.262-.02.164.097.314.262.334.258.031.519.047.78.047h.004c3.33.003 6.294-2.109 7.38-5.256 1.086-3.148.054-6.638-2.57-8.689-2.622-2.05-6.258-2.21-9.05-.397-.075.048-.123.126-.134.214-.011.088.017.176.077.24l.99 1.072-3.243.464L2.9.973l.96 1.042c.101.11.267.129.39.045 2.98-2.033 6.926-1.935 9.803.243 2.876 2.178 4.04 5.949 2.893 9.37-1.148 3.42-4.351 5.725-7.959 5.727-.386 0-.772-.026-1.155-.079-.162-.02-.31.095-.333.257-.022.162.09.313.252.338 3.33.459 6.638-.977 8.578-3.722 1.94-2.745 2.189-6.343.644-9.329C15.43 1.879 12.35.003 8.988 0z" transform="translate(0 .857)"/>
        <path d="M8.988 3.3c-.166 0-.3.134-.3.3V9c0 .08.032.156.088.212l3 3c.118.114.305.112.42-.004.116-.115.118-.302.004-.42L9.288 8.876V3.6c0-.166-.134-.3-.3-.3z" transform="translate(0 .857)"/>
    </g>
</svg>
