<svg xmlns="http://www.w3.org/2000/svg" width="20" height="18" viewBox="0 0 20 18">
    <g fill="#FFF" stroke="#FFF" stroke-width=".5">
        <path d="M17.809 6.353L9.293.118c-.164-.12-.387-.12-.551 0L.226 6.353c-.208.152-.253.445-.1.653.152.208.444.253.652.1l8.24-6.033 8.24 6.033c.083.061.18.09.275.09.144 0 .285-.066.377-.19.152-.208.107-.5-.101-.653z" transform="translate(1 1)"/>
        <path d="M15.552 7.212c-.257 0-.466.209-.466.467v7.43h-3.734v-4.056c0-1.287-1.047-2.334-2.334-2.334-1.287 0-2.334 1.047-2.334 2.334v4.056H2.949v-7.43c0-.258-.209-.467-.466-.467-.258 0-.467.21-.467.467v7.896c0 .258.209.467.467.467H7.15c.246 0 .447-.19.465-.43l.002-.037v-4.522c0-.772.628-1.4 1.4-1.4.773 0 1.401.628 1.401 1.4v4.522c0 .014 0 .026.002.036.018.241.22.431.465.431h4.668c.257 0 .466-.209.466-.467V7.68c0-.258-.209-.467-.467-.467z" transform="translate(1 1)"/>
    </g>
</svg>
