<svg xmlns="http://www.w3.org/2000/svg" width="26" height="25" viewBox="0 0 26 25">
    <path fill="#222" stroke="#222" stroke-width=".2" d="M2.667 1.094c-.465 0-.9.157-1.207.465-.306.309-.46.743-.46 1.19v12.693c0 .448.154.876.46 1.182.306.305.74.463 1.198.474h1.12v3.863c.001.213.14.42.338.504.197.083.443.04.6-.107l4.557-4.26h11.171c.465 0 .9-.166 1.207-.474.306-.309.46-.734.46-1.182V2.75c0-.447-.145-.881-.451-1.19-.306-.308-.751-.465-1.216-.465H2.667zm0 1.103h17.777c.229 0 .34.061.417.138.076.077.139.197.139.414v12.693c0 .218-.063.337-.139.414-.076.077-.188.138-.417.138H9.056c-.14 0-.28.053-.382.147l-3.785 3.535v-3.13c0-.289-.265-.552-.556-.552H2.667c-.227-.007-.35-.071-.426-.146-.076-.077-.13-.188-.13-.406V2.75c0-.217.063-.337.139-.414.076-.077.188-.138.417-.138zm22.161 3.027c-.27.03-.496.282-.495.552v12.977c0 .219-.054.322-.13.397-.076.076-.201.147-.443.155h-1.927c-.29 0-.555.263-.555.552v3.13l-3.785-3.535c-.103-.094-.242-.148-.382-.147H9.89c-.294-.004-.564.26-.564.552 0 .292.27.556.564.552h7.005l4.557 4.26c.156.147.402.19.6.107.198-.084.336-.29.338-.504V20.41h1.406c.455-.016.884-.17 1.19-.474.305-.304.46-.735.46-1.182V5.776c.001-.31-.306-.586-.617-.552h0z"/>
</svg>
