<svg xmlns="http://www.w3.org/2000/svg" width="23" height="26" viewBox="0 0 23 26">
    <g fill="none" transform="translate(1 1)">
        <path fill="#222" stroke="#222" stroke-width=".2" d="M17.822 12.654V8.73c.018-2.992-1.985-4.977-3.706-5.767-.493-.227-1.001-.401-1.518-.53v-.251C12.598.979 11.624 0 10.426 0 9.228 0 8.254.979 8.254 2.182v.288c-.465.126-.923.29-1.367.497-1.902.88-3.829 3.003-3.846 5.76v3.927c0 2.788-.98 5.18-2.913 7.109-.115.115-.157.285-.108.44.049.156.18.272.34.3l4.124.715c.768.133 1.475.242 2.148.332C7.39 23.042 8.879 24 10.505 24c1.627 0 3.116-.958 3.874-2.451.67-.09 1.374-.199 2.138-.331l4.122-.715c.16-.028.292-.144.34-.3.05-.155.008-.325-.107-.44-2.024-2.02-3.05-4.412-3.05-7.109zm-8.7-10.472c0-.722.585-1.31 1.304-1.31.719 0 1.303.588 1.303 1.31v.08c-.866-.126-1.744-.12-2.606.02v-.1zm1.384 20.945c-1.1 0-2.128-.55-2.788-1.447.97.1 1.877.151 2.783.151.909 0 1.818-.05 2.793-.152-.66.898-1.689 1.448-2.788 1.448zm5.863-2.77c-.833.145-1.598.262-2.32.355h-.003c-.318.04-.627.076-.93.106h-.007c-.278.028-.55.051-.818.07l-.15.01c-.233.016-.463.028-.691.037l-.14.005c-.54.019-1.073.019-1.613 0l-.145-.005c-.225-.01-.451-.02-.68-.036l-.164-.011c-.26-.019-.523-.04-.792-.068l-.03-.002c-.3-.03-.607-.066-.922-.106H6.96c-.725-.092-1.492-.21-2.33-.355l-3.327-.577c1.73-1.987 2.607-4.38 2.607-7.126V8.73c.015-2.372 1.689-4.205 3.34-4.97.492-.228 1.002-.398 1.52-.517l.013-.001c1.071-.242 2.21-.253 3.293-.03h.017c.567.118 1.125.298 1.662.545 1.603.736 3.213 2.557 3.198 4.97v3.928c0 2.632.945 5.08 2.742 7.126l-3.326.576z"/>
        <path fill="#222" stroke="#222" stroke-width=".2" d="M13.723 4.604c-1.835-.805-4.083-.806-5.906.001-1.04.46-2.803 1.808-2.817 3.937-.001.251.209.456.47.458h.004c.26 0 .472-.202.473-.452.011-1.673 1.43-2.746 2.267-3.116 1.577-.7 3.527-.698 5.115 0 .238.104.519.004.628-.225.109-.229.004-.498-.234-.603z"/>
        <circle cx="17.5" cy="6.5" r="3.75" fill="#F03737" stroke="#FFF" stroke-width=".5"/>
    </g>
</svg>
