<svg xmlns="http://www.w3.org/2000/svg" width="15" height="14" viewBox="0 0 15 14">
    <path fill="#B620E0" fill-rule="evenodd" d="M10.826 9.127c-.06-.057-.347.224-.407.166-.076-.071 0-.553 0-.553.722-.937 1.11-2.07 1.104-3.232C11.509 2.475 8.93.018 5.74 0 4.215-.007 2.749.568 1.67 1.595.593 2.622-.009 4.017.001 5.468c.013 3.034 2.592 5.491 5.781 5.509 1.227.005 2.422-.368 3.408-1.062l.005-.003s.465-.069.537 0c.054.052-.21.312-.151.368l3.64 3.464c.217.217.542.305.847.23.305-.076.544-.303.623-.593.079-.291-.014-.6-.242-.806l-3.623-3.448zm-5.048.752c-2.55-.014-4.614-1.98-4.626-4.407-.007-1.16.475-2.276 1.337-3.098.863-.822 2.035-1.281 3.256-1.276 2.55.014 4.614 1.98 4.625 4.406.007 1.16-.474 2.276-1.337 3.098C8.171 9.424 7 9.883 5.778 9.88z"/>
</svg>
