<svg xmlns="http://www.w3.org/2000/svg" width="18" height="18" viewBox="0 0 18 18">
    <g fill="#FFF" fill-rule="evenodd" stroke="#FFF" stroke-linecap="round" stroke-linejoin="round" stroke-width=".5">
        <path d="M15.176 6.222H13.68c-.24 0-.438-.132-.53-.354-.093-.223-.046-.457.124-.627l1.058-1.058c.156-.155.241-.363.241-.582 0-.22-.085-.427-.24-.583l-1.35-1.35c-.31-.31-.853-.311-1.165 0l-1.058 1.059c-.17.17-.405.217-.627.125-.222-.093-.354-.29-.354-.531V.824c0-.455-.37-.824-.824-.824H7.046c-.454 0-.824.37-.824.824V2.32c0 .24-.132.438-.354.53-.222.093-.457.046-.627-.124L4.183 1.669c-.312-.312-.854-.311-1.165 0l-1.35 1.349c-.155.155-.24.362-.24.583 0 .22.085.426.24.582l1.06 1.058c.169.17.215.404.124.627-.092.222-.29.354-.531.354H.824c-.455 0-.824.37-.824.824v1.908c0 .454.37.824.824.824H2.32c.24 0 .438.132.53.354.093.223.046.457-.124.627L1.67 11.817c-.156.155-.241.363-.241.582 0 .22.085.427.24.583l1.35 1.35c.311.31.853.311 1.165 0l1.058-1.06c.17-.169.404-.216.627-.124.222.093.354.29.354.531v1.497c0 .455.37.824.824.824h1.908c.454 0 .823-.37.823-.824V13.68c0-.24.133-.438.355-.53.223-.093.456-.046.627.124l1.058 1.058c.311.312.854.311 1.165 0l1.349-1.349c.156-.155.241-.362.241-.583 0-.22-.085-.426-.241-.582l-1.058-1.058c-.17-.17-.217-.404-.125-.627.092-.222.29-.354.531-.354h1.497c.455 0 .824-.37.824-.824V7.046c0-.454-.37-.824-.824-.824zm.231 2.732c0 .127-.103.231-.23.231h-1.498c-.48 0-.894.276-1.078.72-.184.445-.088.933.253 1.273l1.058 1.058c.09.09.09.237 0 .327l-1.349 1.35c-.09.09-.236.09-.327 0l-1.058-1.06c-.34-.34-.828-.436-1.272-.252-.445.184-.72.597-.72 1.078v1.497c0 .128-.105.231-.232.231H7.046c-.127 0-.231-.103-.231-.23v-1.498c0-.48-.276-.894-.72-1.078-.15-.062-.303-.092-.455-.092-.3 0-.592.118-.818.345l-1.058 1.058c-.09.09-.237.09-.327 0l-1.35-1.349c-.09-.09-.09-.237 0-.327l1.06-1.058c.34-.34.436-.828.252-1.273-.184-.444-.597-.72-1.078-.72H.824c-.128 0-.231-.104-.231-.23v-1.91c0-.126.103-.23.23-.23h1.498c.48 0 .894-.276 1.078-.72.184-.445.088-.933-.253-1.273L2.088 3.764c-.09-.09-.09-.237 0-.327l1.349-1.35c.09-.09.236-.09.327 0l1.058 1.059c.34.34.827.437 1.272.253.445-.184.72-.597.72-1.078V.824c0-.128.105-.231.232-.231h1.908c.127 0 .231.103.231.23v1.498c0 .48.276.894.72 1.078.446.184.933.087 1.273-.253l1.058-1.058c.09-.09.237-.09.327 0l1.35 1.349c.09.09.09.237 0 .327l-1.06 1.058c-.34.34-.436.828-.252 1.273.184.444.597.72 1.078.72h1.497c.128 0 .231.104.231.23v1.91z" transform="translate(1 1)"/>
        <path d="M8 5.333C6.53 5.333 5.333 6.53 5.333 8c0 1.47 1.196 2.667 2.667 2.667 1.47 0 2.667-1.196 2.667-2.667 0-1.47-1.196-2.667-2.667-2.667zm0 4.741c-1.143 0-2.074-.93-2.074-2.074 0-1.143.93-2.074 2.074-2.074 1.143 0 2.074.93 2.074 2.074 0 1.143-.93 2.074-2.074 2.074z" transform="translate(1 1)"/>
    </g>
</svg>
