<svg xmlns="http://www.w3.org/2000/svg" width="16" height="14" viewBox="0 0 16 14">
    <path fill="#FFF" stroke="#FFF" stroke-width=".6" d="M15.431 12.298V3.623c0-.69-.562-1.251-1.254-1.251h-8.81c-.238 0-.458-.13-.574-.339l-.212-.385C4.361 1.248 3.94 1 3.482 1H2.254C1.563 1 1 1.561 1 2.25v10.048c0 .69.563 1.251 1.254 1.251h11.923c.692 0 1.254-.561 1.254-1.251zM2.254 1.598h1.228c.24 0 .46.13.574.338l.213.385c.22.4.641.648 1.099.648h8.81c.36 0 .654.293.654.654v.967H1.6V2.25c0-.36.294-.653.655-.653zm-.655 10.7v-7.11h13.233v7.11c0 .36-.293.654-.655.654H2.254c-.361 0-.655-.294-.655-.654z"/>
</svg>
