<svg xmlns="http://www.w3.org/2000/svg" xmlns:xlink="http://www.w3.org/1999/xlink" width="37" height="50" viewBox="0 0 37 50">
    <defs>
        <linearGradient id="z0zqr1q29b" x1="38.415%" x2="54.954%" y1="1.719%" y2="54.41%">
            <stop offset="0%" stop-color="#F3E7D8"/>
            <stop offset="100%" stop-color="#979388"/>
        </linearGradient>
        <linearGradient id="x85j0motze" x1="-307.974%" x2="77.958%" y1="-448.115%" y2="131.9%">
            <stop offset="0%" stop-color="#DC422F"/>
            <stop offset="100%" stop-color="#ED9939"/>
        </linearGradient>
        <linearGradient id="wq462ve3ih" x1="44.611%" x2="54.251%" y1="16.571%" y2="77.85%">
            <stop offset="0%" stop-color="#979388"/>
            <stop offset="100%" stop-color="#F3E7D8"/>
        </linearGradient>
        <linearGradient id="c19qpahz0k" x1="0%" x2="99.994%" y1="50%" y2="50%">
            <stop offset="0%" stop-color="#979388"/>
            <stop offset="100%" stop-color="#F3E7D8"/>
        </linearGradient>
        <linearGradient id="pldulwtegn" x1="0%" x2="99.998%" y1="50%" y2="50%">
            <stop offset="0%" stop-color="#979388"/>
            <stop offset="100%" stop-color="#F3E7D8"/>
        </linearGradient>
        <path id="dib7knrx6a" d="M18.623 41.103s1.709-4.34 1.898-6.842c.01-.137.015-.271.015-.403-.002-2.864-2.392-4.505-4.943-5.546-4.144-1.691-7.146-3.491-8.133-8.154-.658-3.123-.462-6.37-1.207-9.473C5.322 6.81 3.23 2.945.273.197 5.415 2.411 11.09 6.376 15.529 11.259c-.163.943-.413 1.87-.745 2.767-.602 1.619-1.468 3.166-1.686 4.885-.035.266-.052.534-.052.803-.001 2.144 1.057 4.3 2.801 5.601 2.864 2.136 5.79 3.752 5.793 7.191.001.536-.07 1.116-.222 1.749-.657 2.714-2.794 6.846-2.795 6.848"/>
        <path id="ttxyd3s22d" d="M.164 2.01C.378 1.4.595.774.596.14.596.774.378 1.4.164 2.01"/>
        <path id="kubi7hv8tg" d="M5.835 29.512c.001-.002 2.138-4.072 2.795-6.747.153-.623.223-1.194.223-1.722-.003-3.388-2.93-4.98-5.794-7.084C1.315 12.676.257 10.553.26 8.44c0-.265.017-.53.05-.792.22-1.693 1.085-3.217 1.687-4.811.332-.884.582-1.797.746-2.726 4.582 4.962 7.846 10.889 7.843 16.883 0 .206-.004.411-.012.617v.02c-.17 4.309-1.814 8.104-4.423 11.48l-.05.05c-.11.117-.204.234-.265.35"/>
        <path id="mo50fzfhbj" d="M4.235 4.894c-.008-.131-.32-.346-.414-.43-.503-.45-1.07-.827-1.603-1.241C1.571 2.72.99 2.12.595 1.41l-.052-.096C.433 1.104.28.805.114.038c1.412.598 4.01 2.932 4.121 4.856"/>
        <path id="t1awyy7wom" d="M14.565 14.302c-.571-2.557-1.261-5.353-2.868-7.444-1.483-1.93-3.373-1.962-5.573-2.123-2.03-.149-3.83-1.103-4.994-2.867C.797 1.365.603.732.18.298c1.192 1.225 3.054 2.24 5.575 2.24h.149c1.04-.017 2.094-.122 3.104-.122 1.776 0 3.412.324 4.581 2.023.54.784 1.311 3.036 1.312 6.192 0 1.118-.097 2.35-.336 3.671"/>
    </defs>
    <g fill="none" fill-rule="evenodd">
        <path fill="#EDDFCC" d="M18.669 47.101s1.738-4.306 1.932-6.787c.236-3.09-2.3-4.821-5.014-5.902-4.217-1.677-7.27-3.463-8.274-8.089-.67-3.098-.471-6.318-1.23-9.397C5.138 13.082 3.01 9.247 0 6.522c5.232 2.196 11.006 6.13 15.522 10.974-.167.935-.42 1.855-.758 2.745-.613 1.605-1.494 3.14-1.716 4.845-.313 2.375.8 4.9 2.797 6.353 3.368 2.45 6.82 4.21 5.668 8.869-.669 2.693-2.843 6.791-2.844 6.793"/>
        <path fill="#EDDFCC" d="M18.669 47.101s1.738-4.306 1.932-6.787c.236-3.09-2.3-4.821-5.014-5.902-4.217-1.677-7.27-3.463-8.274-8.089-.67-3.098-.471-6.318-1.23-9.397C5.138 13.082 3.01 9.247 0 6.522c5.232 2.196 11.006 6.13 15.522 10.974-.167.935-.42 1.855-.758 2.745-.613 1.605-1.494 3.14-1.716 4.845-.313 2.375.8 4.9 2.797 6.353 3.368 2.45 6.82 4.21 5.668 8.869-.669 2.693-2.843 6.791-2.844 6.793"/>
        <g transform="translate(0 6.522)">
            <mask id="x7tqgprkpc" fill="#fff">
                <use xlink:href="#dib7knrx6a"/>
            </mask>
            <path fill="url(#z0zqr1q29b)" d="M18.623 41.103s1.709-4.34 1.898-6.842c.01-.137.015-.271.015-.403-.002-2.864-2.392-4.505-4.943-5.546-4.144-1.691-7.146-3.491-8.133-8.154-.658-3.123-.462-6.37-1.207-9.473C5.322 6.81 3.23 2.945.273.197 5.415 2.411 11.09 6.376 15.529 11.259c-.163.943-.413 1.87-.745 2.767-.602 1.619-1.468 3.166-1.686 4.885-.035.266-.052.534-.052.803-.001 2.144 1.057 4.3 2.801 5.601 2.864 2.136 5.79 3.752 5.793 7.191.001.536-.07 1.116-.222 1.749-.657 2.714-2.794 6.846-2.795 6.848" mask="url(#x7tqgprkpc)"/>
        </g>
        <g transform="translate(32.609 31.884)">
            <mask id="uly1is0e3f" fill="#fff">
                <use xlink:href="#ttxyd3s22d"/>
            </mask>
            <path fill="url(#x85j0motze)" d="M.164 2.01C.378 1.4.595.774.596.14.596.774.378 1.4.164 2.01" mask="url(#uly1is0e3f)"/>
        </g>
        <path fill="#EDDFCC" d="M33.07 28.434c-.324-.444-.357-.975-.253-1.508.81.667 1.16 1.415.974 2.525.005-.299-.355-.581-.53-.78-.069-.078-.133-.156-.192-.237m3.185-1.29c-.616-.957-1.2-1.946-1.633-2.995-.546-1.323-.768-2.759-.887-4.165-.036-.437-.045-.875-.001-1.31.036-.338.066-1.001.275-1.308-1.472 1.75-2.675 4.49-2.26 6.735-.468-.285-.975-.517-1.509-.642-1.21-.286-2.396-.01-3.518.508-1.968-7.041-7.146-13.5-12.953-18.17 2.112 3.447 2.872 7.63 2.173 11.54 4.813 5.195 8.194 11.437 7.953 17.717-.168 4.371-2.158 8.624-4.812 12.047 2.249-2.211 4.34-4.376 5.845-7.189 1.169-2.19 1.921-4.544 2.966-6.784.609-1.305 1.805-4.361 3.801-3.906.81.184 1.345 1 1.45 1.804.104.802-.13 1.601-.361 2.373.872-.64 1.485-1.57 1.798-2.596.745-.208 1.537-.45 2.04-1.013.723-.814.126-1.88-.367-2.646"/>
        <path fill="#EDDFCC" d="M18.83 46.697c-.13.135-.24.27-.308.404 0-.002 2.1-4.115 2.746-6.817 1.113-4.676-2.221-6.442-5.473-8.9-1.928-1.458-3.003-3.993-2.701-6.376.215-1.71 1.065-3.25 1.657-4.862.326-.893.571-1.816.732-2.755 4.656 5.187 7.926 11.417 7.694 17.685-.163 4.363-1.779 8.205-4.346 11.621"/>
        <g transform="translate(13.043 17.391)">
            <mask id="2a9bbp26oi" fill="#fff">
                <use xlink:href="#kubi7hv8tg"/>
            </mask>
            <path fill="url(#wq462ve3ih)" d="M5.835 29.512c.001-.002 2.138-4.072 2.795-6.747.153-.623.223-1.194.223-1.722-.003-3.388-2.93-4.98-5.794-7.084C1.315 12.676.257 10.553.26 8.44c0-.265.017-.53.05-.792.22-1.693 1.085-3.217 1.687-4.811.332-.884.582-1.797.746-2.726 4.582 4.962 7.846 10.889 7.843 16.883 0 .206-.004.411-.012.617v.02c-.17 4.309-1.814 8.104-4.423 11.48l-.05.05c-.11.117-.204.234-.265.35" mask="url(#2a9bbp26oi)"/>
        </g>
        <path fill="#EDDFCC" d="M8.696 7.971c-.011-.216-.451-.57-.583-.707-.707-.739-1.504-1.358-2.255-2.037-.91-.825-1.728-1.81-2.284-2.975-.024-.053-.049-.105-.072-.158-.154-.343-.368-.835-.603-2.094C4.885.98 8.54 4.813 8.696 7.971M16.667 50c-.008-.137-.338-.362-.438-.45-.53-.47-1.127-.864-1.69-1.296-.683-.525-1.296-1.152-1.713-1.894-.019-.032-.037-.066-.055-.1-.115-.218-.276-.531-.452-1.332 1.49.624 4.231 3.062 4.348 5.072"/>
        <g transform="translate(12.319 44.928)">
            <mask id="i320cvfy5l" fill="#fff">
                <use xlink:href="#mo50fzfhbj"/>
            </mask>
            <path fill="url(#c19qpahz0k)" d="M4.235 4.894c-.008-.131-.32-.346-.414-.43-.503-.45-1.07-.827-1.603-1.241C1.571 2.72.99 2.12.595 1.41l-.052-.096C.433 1.104.28.805.114.038c1.412.598 4.01 2.932 4.121 4.856" mask="url(#i320cvfy5l)"/>
        </g>
        <path fill="#EDDFCC" d="M17.77 48.55c.941-4.96-.253-8.652-1.01-9.696-1.896-2.619-4.978-1.913-7.945-1.87-2.684.04-4.661-.972-5.916-2.201.436.427.637 1.05.98 1.544C5.083 38.061 6.944 39 9.043 39.145c2.274.158 4.228.19 5.761 2.087 1.661 2.056 2.374 4.805 2.965 7.319"/>
        <g transform="translate(2.899 34.058)">
            <mask id="ddmd8agpdo" fill="#fff">
                <use xlink:href="#t1awyy7wom"/>
            </mask>
            <path fill="url(#pldulwtegn)" d="M14.565 14.302c-.571-2.557-1.261-5.353-2.868-7.444-1.483-1.93-3.373-1.962-5.573-2.123-2.03-.149-3.83-1.103-4.994-2.867C.797 1.365.603.732.18.298c1.192 1.225 3.054 2.24 5.575 2.24h.149c1.04-.017 2.094-.122 3.104-.122 1.776 0 3.412.324 4.581 2.023.54.784 1.311 3.036 1.312 6.192 0 1.118-.097 2.35-.336 3.671" mask="url(#ddmd8agpdo)"/>
        </g>
    </g>
</svg>
