<svg xmlns="http://www.w3.org/2000/svg" width="113" height="18" viewBox="0 0 113 18">
    <g fill="none" fill-rule="evenodd">
        <text fill="#000" font-family="OpenSans-Light, Open Sans" font-size="10" font-weight="300" transform="translate(-1)">
            <tspan x="0" y="15">Powered By</tspan>
        </text>
        <g fill-rule="nonzero">
            <path fill="#4285F4" d="M13.426 6.374H7.052v1.888h4.515c-.221 2.656-2.434 3.777-4.515 3.777-2.67 0-4.986-2.095-4.986-5.03 0-2.863 2.213-5.061 4.986-5.061 2.14 0 3.409 1.372 3.409 1.372l1.328-1.372S10.092.059 6.993.059C3.054.059 0 3.393 0 6.979c0 3.526 2.877 6.964 7.097 6.964 3.718 0 6.433-2.553 6.433-6.315 0-.797-.104-1.254-.104-1.254z" transform="translate(-1) translate(59)"/>
            <path fill="#EA4335" d="M18.634 5.002c-2.611 0-4.485 2.05-4.485 4.426 0 2.42 1.815 4.5 4.515 4.5 2.45 0 4.441-1.874 4.441-4.441.015-2.966-2.316-4.485-4.47-4.485zm.03 1.755c1.284 0 2.508 1.033 2.508 2.715 0 1.638-1.21 2.715-2.508 2.715-1.431 0-2.553-1.136-2.553-2.715 0-1.564 1.107-2.715 2.553-2.715z" transform="translate(-1) translate(59)"/>
            <path fill="#FBBC05" d="M28.402 5.002c-2.612 0-4.486 2.05-4.486 4.426 0 2.42 1.815 4.5 4.515 4.5 2.45 0 4.441-1.874 4.441-4.441 0-2.966-2.331-4.485-4.47-4.485zm.03 1.755c1.283 0 2.507 1.033 2.507 2.715 0 1.638-1.21 2.715-2.508 2.715-1.431 0-2.552-1.136-2.552-2.715-.015-1.564 1.106-2.715 2.552-2.715z" transform="translate(-1) translate(59)"/>
            <path fill="#4285F4" d="M37.962 5.002c-2.405 0-4.278 2.095-4.278 4.455 0 2.686 2.183 4.47 4.249 4.47 1.269 0 1.947-.5 2.449-1.09v.884c0 1.535-.93 2.464-2.346 2.464-1.357 0-2.05-1.018-2.287-1.593l-1.711.723c.605 1.283 1.83 2.626 4.013 2.626 2.39 0 4.205-1.505 4.205-4.648V5.267h-1.874v.753c-.575-.605-1.372-1.018-2.42-1.018zm.177 1.755c1.18 0 2.39 1.004 2.39 2.715 0 1.741-1.21 2.7-2.404 2.7-1.284 0-2.464-1.033-2.464-2.685-.015-1.712 1.224-2.73 2.478-2.73z" transform="translate(-1) translate(59)"/>
            <path fill="#EA4335" d="M50.562 5.002c-2.257 0-4.16 1.8-4.16 4.455 0 2.818 2.124 4.486 4.382 4.486 1.888 0 3.054-1.033 3.732-1.963l-1.549-1.032c-.398.62-1.077 1.224-2.183 1.224-1.254 0-1.83-.693-2.184-1.357l5.99-2.479-.31-.723c-.575-1.431-1.932-2.611-3.718-2.611zm.089 1.711c.811 0 1.401.428 1.652.96l-3.998 1.666c-.177-1.298 1.047-2.626 2.346-2.626z" transform="translate(-1) translate(59)"/>
            <path fill="#34A853" d="M43.554 0.516H45.516000000000005V13.677H43.554z" transform="translate(-1) translate(59)"/>
        </g>
    </g>
</svg>
